HIERARCHY
ROOT root
{
	OFFSET	0	13.1	24.9
	CHANNELS 6  Xposition Yposition Zposition Xrotation Yrotation Zrotation
	JOINT spine_1
	{
		OFFSET	0	9.99999	0
		CHANNELS 3  Xrotation Yrotation Zrotation
		JOINT spine_2
		{
			OFFSET	0	112	-10
			CHANNELS 3  Xrotation Yrotation Zrotation
			JOINT spine_3
			{
				OFFSET	0	206.5	19.3
				CHANNELS 3  Xrotation Yrotation Zrotation
				JOINT spine_4
				{
					OFFSET	0	110.4	14.6
					CHANNELS 3  Xrotation Yrotation Zrotation
					JOINT neck_1
					{
						OFFSET	0	71.8	-50.3
						CHANNELS 3  Xrotation Yrotation Zrotation
						JOINT neck_2
						{
							OFFSET	0	86.2	-25.8
							CHANNELS 3  Xrotation Yrotation Zrotation
							JOINT head_ee
							{
								OFFSET	0	179.8	-8.7
								CHANNELS 3  Xrotation Yrotation Zrotation
								End Site
								{
									OFFSET	1	0	0
								}
							}
						}
					}
					JOINT left_clavicle
					{
						OFFSET	-43.2	22.4	-70.8
						CHANNELS 3  Xrotation Yrotation Zrotation
						JOINT left_shoulder
						{
							OFFSET	-93.9	-5.79999	48.7
							CHANNELS 3  Xrotation Yrotation Zrotation
							JOINT left_elbow
							{
								OFFSET	-291.4	-30.8	15.2
								CHANNELS 3  Xrotation Yrotation Zrotation
								JOINT left_lowarm_twist
								{
									OFFSET	-110.7	-3.89999	13.6
									CHANNELS 3  Xrotation Yrotation Zrotation
									JOINT left_hand
									{
										OFFSET	-110.7	-3.89999	13.6
										CHANNELS 3  Xrotation Yrotation Zrotation
										JOINT left_ee
										{
											OFFSET	-80.8	-5.10001	12.1
											CHANNELS 3  Xrotation Yrotation Zrotation
											End Site
											{
												OFFSET	1	0	0
											}
										}
									}
								}
							}
						}
					}
					JOINT right_clavicle
					{
						OFFSET	43.2	22.4	-70.8
						CHANNELS 3  Xrotation Yrotation Zrotation
						JOINT right_shoulder
						{
							OFFSET	93.9	-5.79999	48.7
							CHANNELS 3  Xrotation Yrotation Zrotation
							JOINT right_elbow
							{
								OFFSET	291.4	-30.8	15.2
								CHANNELS 3  Xrotation Yrotation Zrotation
								JOINT right_lowarm_twist
								{
									OFFSET	110.7	-3.89999	13.6
									CHANNELS 3  Xrotation Yrotation Zrotation
									JOINT right_hand
									{
										OFFSET	110.7	-3.89999	13.6
										CHANNELS 3  Xrotation Yrotation Zrotation
										JOINT right_ee
										{
											OFFSET	80.8	-5.10001	12.1
											CHANNELS 3  Xrotation Yrotation Zrotation
											End Site
											{
												OFFSET	1	0	0
											}
										}
									}
								}
							}
						}
					}
				}
			}
		}
	}
	JOINT left_hip
	{
		OFFSET	-82.8	-127.5	0.300001
		CHANNELS 3  Xrotation Yrotation Zrotation
		JOINT left_knee
		{
			OFFSET	-28.2	-396.7	2.2
			CHANNELS 3  Xrotation Yrotation Zrotation
			JOINT left_ankle
			{
				OFFSET	-11.7	-411.3	35.4
				CHANNELS 3  Xrotation Yrotation Zrotation
				JOINT left_toes
				{
					OFFSET	0	-60	-88.6
					CHANNELS 3  Xrotation Yrotation Zrotation
					JOINT left_foot_ee
					{
						OFFSET	-22.5	-16.5	-42.2
						CHANNELS 3  Xrotation Yrotation Zrotation
						End Site
						{
							OFFSET	1	0	0
						}
					}
				}
			}
		}
	}
	JOINT right_hip
	{
		OFFSET	82.8	-127.5	0.300001
		CHANNELS 3  Xrotation Yrotation Zrotation
		JOINT right_knee
		{
			OFFSET	28.2	-396.7	2.2
			CHANNELS 3  Xrotation Yrotation Zrotation
			JOINT right_ankle
			{
				OFFSET	11.7	-411.3	35.4
				CHANNELS 3  Xrotation Yrotation Zrotation
				JOINT right_toes
				{
					OFFSET	0	-60	-88.6
					CHANNELS 3  Xrotation Yrotation Zrotation
					JOINT right_foot_ee
					{
						OFFSET	22.5	-16.5	-42.2
						CHANNELS 3  Xrotation Yrotation Zrotation
						End Site
						{
							OFFSET	1	0	0
						}
					}
				}
			}
		}
	}
}
MOTION
Frames: 9
Frame Time: 0.02
3574.42 741.953 -1474.73 177.728102834 74.8592754591 -170.386689411 -0.969906 -0.515181 -3.41944 -0.963451 -0.296681 -3.44525 -0.940512 0.490713 -3.42304 -0.956856 -0.0557152 -3.45754 -19.9931 3.62109 11.4157 -19.6279 1.17685 12.0964 -0.0 0.0 -0.0 8.24978 10.3126 15.6109 -14.9481 -32.9288 59.0033 1.3279 -33.3355 0.397592 -79.9328 -7.81332 5.28064 -2.56004 21.0367 -6.6244 -0.0 0.0 -0.0 5.29354 2.25428 -10.1625 -2.0956 -4.83155 -62.1229 2.58411 51.9946 -1.26037 84.5827 4.37662 8.84671 2.07061 -26.9182 -22.6727 0.0 0.0 0.0 37.0132 60.2213 -42.3744 -7.25255 0.22996 1.08856 18.8713 -30.3772 -3.2655 -15.7561 0.0 0.0 -0.0 0.0 -0.0 6.47952 16.7446 -12.903 -6.3267 -0.208309 -0.948126 31.4881 -1.62637 4.05665 -30.0067 0.0 0.0 0.0 0.0 0.0 
3574.42 741.953 -1474.73 177.627738802 75.5138292324 -170.282876634 -0.969906 -0.515181 -3.41944 -0.963451 -0.296681 -3.44525 -0.940512 0.490713 -3.42304 -0.956856 -0.0557152 -3.45754 -19.9931 3.62109 11.4157 -19.6279 1.17685 12.0964 -0.0 0.0 -0.0 8.24978 10.3126 15.6109 -14.9481 -32.9288 59.0033 1.3279 -33.3355 0.397592 -79.9328 -7.81332 5.28064 -2.56004 21.0367 -6.6244 -0.0 0.0 -0.0 5.29354 2.25428 -10.1625 -2.0956 -4.83155 -62.1229 2.58411 51.9946 -1.26037 84.5827 4.37662 8.84671 2.07061 -26.9182 -22.6727 0.0 0.0 0.0 37.0132 60.2213 -42.3744 -7.25255 0.22996 1.08856 18.8713 -30.3772 -3.2655 -15.7561 0.0 0.0 -0.0 0.0 -0.0 6.47952 16.7446 -12.903 -6.3267 -0.208309 -0.948126 31.4881 -1.62637 4.05665 -30.0067 0.0 0.0 0.0 0.0 0.0 
3574.42 741.953 -1474.73 177.517547467 76.1695642667 -170.169235087 -0.969906 -0.515181 -3.41944 -0.963451 -0.296681 -3.44525 -0.940512 0.490713 -3.42304 -0.956856 -0.0557152 -3.45754 -19.9931 3.62109 11.4157 -19.6279 1.17685 12.0964 -0.0 0.0 -0.0 8.24978 10.3126 15.6109 -14.9481 -32.9288 59.0033 1.3279 -33.3355 0.397592 -79.9328 -7.81332 5.28064 -2.56004 21.0367 -6.6244 -0.0 0.0 -0.0 5.29354 2.25428 -10.1625 -2.0956 -4.83155 -62.1229 2.58411 51.9946 -1.26037 84.5827 4.37662 8.84671 2.07061 -26.9182 -22.6727 0.0 0.0 0.0 37.0132 60.2213 -42.3744 -7.25255 0.22996 1.08856 18.8713 -30.3772 -3.2655 -15.7561 0.0 0.0 -0.0 0.0 -0.0 6.47952 16.7446 -12.903 -6.3267 -0.208309 -0.948126 31.4881 -1.62637 4.05665 -30.0067 0.0 0.0 0.0 0.0 0.0 
3574.42 741.953 -1474.73 177.288705644 77.3563899328 -169.934159875 -0.969906 -0.515181 -3.41944 -0.963451 -0.296681 -3.44525 -0.940512 0.490713 -3.42304 -0.956856 -0.0557152 -3.45754 -19.9931 3.62109 11.4157 -19.6279 1.17685 12.0964 -0.0 0.0 -0.0 8.24978 10.3126 15.6109 -14.9481 -32.9288 59.0033 1.3279 -33.3355 0.397592 -79.9328 -7.81332 5.28064 -2.56004 21.0367 -6.6244 -0.0 0.0 -0.0 5.29354 2.25428 -10.1625 -2.0956 -4.83155 -62.1229 2.58411 51.9946 -1.26037 84.5827 4.37662 8.84671 2.07061 -26.9182 -22.6727 0.0 0.0 0.0 37.0132 60.2213 -42.3744 -7.25255 0.22996 1.08856 18.8713 -30.3772 -3.2655 -15.7561 0.0 0.0 -0.0 0.0 -0.0 6.47952 16.7446 -12.903 -6.3267 -0.208309 -0.948126 31.4881 -1.62637 4.05665 -30.0067 0.0 0.0 0.0 0.0 0.0 
3574.42 741.953 -1474.73 177.089006227 78.2359610263 -169.729849296 -0.969906 -0.515181 -3.41944 -0.963451 -0.296681 -3.44525 -0.940512 0.490713 -3.42304 -0.956856 -0.0557152 -3.45754 -19.9931 3.62109 11.4157 -19.6279 1.17685 12.0964 -0.0 0.0 -0.0 8.24978 10.3126 15.6109 -14.9481 -32.9288 59.0033 1.3279 -33.3355 0.397592 -79.9328 -7.81332 5.28064 -2.56004 21.0367 -6.6244 -0.0 0.0 -0.0 5.29354 2.25428 -10.1625 -2.0956 -4.83155 -62.1229 2.58411 51.9946 -1.26037 84.5827 4.37662 8.84671 2.07061 -26.9182 -22.6727 0.0 0.0 0.0 37.0132 60.2213 -42.3744 -7.25255 0.22996 1.08856 18.8713 -30.3772 -3.2655 -15.7561 0.0 0.0 -0.0 0.0 -0.0 6.47952 16.7446 -12.903 -6.3267 -0.208309 -0.948126 31.4881 -1.62637 4.05665 -30.0067 0.0 0.0 0.0 0.0 0.0 
3574.42 741.953 -1474.73 176.694276214 79.6559318035 -169.327688248 -0.969906 -0.515181 -3.41944 -0.963451 -0.296681 -3.44525 -0.940512 0.490713 -3.42304 -0.956856 -0.0557152 -3.45754 -19.9931 3.62109 11.4157 -19.6279 1.17685 12.0964 -0.0 0.0 -0.0 8.24978 10.3126 15.6109 -14.9481 -32.9288 59.0033 1.3279 -33.3355 0.397592 -79.9328 -7.81332 5.28064 -2.56004 21.0367 -6.6244 -0.0 0.0 -0.0 5.29354 2.25428 -10.1625 -2.0956 -4.83155 -62.1229 2.58411 51.9946 -1.26037 84.5827 4.37662 8.84671 2.07061 -26.9182 -22.6727 0.0 0.0 0.0 37.0132 60.2213 -42.3744 -7.25255 0.22996 1.08856 18.8713 -30.3772 -3.2655 -15.7561 0.0 0.0 -0.0 0.0 -0.0 6.47952 16.7446 -12.903 -6.3267 -0.208309 -0.948126 31.4881 -1.62637 4.05665 -30.0067 0.0 0.0 0.0 0.0 0.0 
3570.93654349 742.349 -1477.33025609 175.853304015 80.2114221674 -168.407642153 -1.00983 -0.529145 -3.42495 -1.00336 -0.310268 -3.45164 -0.979455 0.481237 -3.432 -0.995883 -0.0664854 -3.4649 -18.64 3.6426 10.8283 -18.3113 1.24945 11.5056 -0.0 0.0 -0.0 8.2402 10.5932 15.5733 -15.3101 -33.4478 58.8905 1.29995 -32.7783 0.382343 -79.3948 -7.74501 5.28748 -2.41918 19.2169 -6.72726 -0.0 0.0 -0.0 5.32815 1.94846 -10.2419 -2.05008 -5.16708 -62.5631 2.59103 52.0688 -1.26582 84.4768 4.36398 8.84172 2.14769 -27.2671 -23.2229 0.0 0.0 0.0 37.5141 60.4249 -43.1935 -7.11043 0.226784 1.06698 18.8484 -30.5922 -3.27139 -16.1943 0.0 0.0 -0.0 0.0 -0.0 6.91156 17.4715 -13.3915 -6.5563 -0.213889 -0.982919 31.2729 -1.5163 4.03487 -30.5359 0.0 0.0 0.0 0.0 0.0 
3571.03851271 742.349 -1477.46154622 174.669730471 82.3953152368 -167.210520946 -1.00983 -0.529145 -3.42495 -1.00336 -0.310268 -3.45164 -0.979455 0.481237 -3.432 -0.995883 -0.0664854 -3.4649 -18.64 3.6426 10.8283 -18.3113 1.24945 11.5056 -0.0 0.0 -0.0 8.2402 10.5932 15.5733 -15.3101 -33.4478 58.8905 1.29995 -32.7783 0.382343 -79.3948 -7.74501 5.28748 -2.41918 19.2169 -6.72726 -0.0 0.0 -0.0 5.32815 1.94846 -10.2419 -2.05008 -5.16708 -62.5631 2.59103 52.0688 -1.26582 84.4768 4.36398 8.84172 2.14769 -27.2671 -23.2229 0.0 0.0 0.0 37.5141 60.4249 -43.1935 -7.11043 0.226784 1.06698 18.8484 -30.5922 -3.27139 -16.1943 0.0 0.0 -0.0 0.0 -0.0 6.91156 17.4715 -13.3915 -6.5563 -0.213889 -0.982919 31.2729 -1.5163 4.03487 -30.5359 0.0 0.0 0.0 0.0 0.0 
3567.71561511 742.867 -1479.67397687 173.17061666 84.9430603936 -165.66204152 -1.08803 -0.463941 -3.40636 -1.0816 -0.246375 -3.42894 -1.0617 0.543292 -3.39462 -1.07778 0.000685687 -3.43777 -17.5323 3.4863 10.4367 -17.2263 0.943977 11.0479 -0.0 0.0 -0.0 8.21117 9.9178 15.5687 -16.2153 -34.0746 58.6664 1.25243 -31.8147 0.35695 -79.4279 -7.74921 5.28708 -2.35044 16.9217 -7.48236 -0.0 0.0 -0.0 5.55474 2.39654 -10.6785 -1.59901 -5.72789 -62.2062 2.55654 51.6962 -1.23868 84.2191 4.33327 8.82949 2.1962 -27.6474 -23.6036 0.0 0.0 0.0 38.8592 59.8055 -44.4372 -8.01485 0.24608 1.20442 19.3171 -30.2811 -3.32988 -16.6379 0.0 0.0 -0.0 0.0 -0.0 6.83142 16.2048 -13.697 -6.32704 -0.208317 -0.948178 31.9143 -1.39145 4.10199 -30.9732 0.0 0.0 0.0 0.0 0.0 
